{"title":"My.Little.Pony.Friendship.Is.Magic.S05E16.Made.in.Manehattan.108","uid":12507524,"size":638949890,"categoryP":"video","categoryS":"hd___tv_shows","magnet":"?xt=urn:btih:f5f37b10e750049cac081adf74acff30c9de6920&amp;dn=My.Little.Pony.Friendship.Is.Magic.S05E16.Made.in.Manehattan.108&amp;tr=udp%3A%2F%2Ftracker.leechers-paradise.org%3A6969&amp;tr=udp%3A%2F%2Fzer0day.ch%3A1337&amp;tr=udp%3A%2F%2Fopen.demonii.com%3A1337&amp;tr=udp%3A%2F%2Ftracker.coppersurfer.tk%3A6969&amp;tr=udp%3A%2F%2Fexodus.desync.com%3A6969","seeders":1,"leechers":0,"uploader":"orangebirds","files":1,"time":1443473166,"description":"My.Little.Pony.Friendship.Is.Magic.S05E16.Made.in.Manehattan.1080p.WEB-DL.x264-orangebirds\r\n\r\nSource : iTunes\r\n\r\nVideo converted using x264 with setting CRF 18 preset very slow\r\nAudio in AC3 5.1, untouched from the source\r\nCC available\r\n\r\nPlease help me seed, and don't forget to leave a comment!\r\n\r\nGeneral\r\nUnique ID                                : 172426010554225732126224506133132702799 (0x81B80AAC4FAF4188977DB28B80FD744F)\r\nComplete name                            : My.Little.Pony.Friendship.Is.Magic.S05E16.Made.in.Manehattan.1080p.WEB-DL.x264-orangebirds.mkv\r\nFormat                                   : Matroska\r\nFormat version                           : Version 2\r\nFile size                                : 609 MiB\r\nDuration                                 : 22mn 3s\r\nOverall bit rate                         : 3 863 Kbps\r\nEncoded date                             : UTC 2015-09-28 18:34:21\r\nWriting application                      : mkvmerge v8.4.0 ('A better way to fly') 32bit\r\nWriting library                          : libebml v1.3.1 + libmatroska v1.4.2\r\nDURATION                                 : 00:21:39.536000000\r\nNUMBER_OF_FRAMES                         : 501\r\nNUMBER_OF_BYTES                          : 22263\r\n_STATISTICS_WRITING_APP                  : mkvmerge v8.4.0 ('A better way to fly') 32bit\r\n_STATISTICS_WRITING_DATE_UTC             : 2015-09-28 18:34:21\r\n_STATISTICS_TAGS                         : BPS DURATION NUMBER_OF_FRAMES NUMBER_OF_BYTES\r\n\r\nVideo\r\nID                                       : 1\r\nFormat                                   : AVC\r\nFormat/Info                              : Advanced Video Codec\r\nFormat profile                           :   \r\nFormat settings, CABAC                   : Yes\r\nFormat settings, ReFrames                : 4 frames\r\nCodec ID                                 : V_MPEG4/ISO/AVC\r\nDuration                                 : 22mn 3s\r\nBit rate                                 : 3 402 Kbps\r\nWidth                                    : 1 920 pixels\r\nHeight                                   : 1 080 pixels\r\nDisplay aspect ratio                     : 16:9\r\nFrame rate mode                          : Constant\r\nFrame rate                               : 23.976 fps\r\nColor space                              : YUV\r\nChroma subsampling                       : 4:2:0\r\nBit depth                                : 8 bits\r\nScan type                                : Progressive\r\nBits/(Pixel*Frame)                       : 0.068\r\nStream size                              : 537 MiB (88%)\r\nWriting library                          : x264 core 148 r2597 e86f3a1\r\nEncoding settings                        : cabac=1 / ref=4 / deblock=1:0:0 / analyse=0x3:0x133 / me=umh / subme=10 / psy=1 / psy_rd=1.00:0.00 / mixed_ref=1 / me_range=24 / chroma_me=1 / trellis=2 / 8x8dct=1 / cqm=0 / deadzone=21,11 / fast_pskip=1 / chroma_qp_offset=-2 / threads=6 / lookahead_threads=1 / sliced_threads=0 / nr=0 / decimate=1 / interlaced=0 / bluray_compat=0 / constrained_intra=0 / bframes=8 / b_pyramid=2 / b_adapt=2 / b_bias=0 / direct=3 / weightb=1 / open_gop=0 / weightp=2 / keyint=240 / keyint_min=23 / scenecut=40 / intra_refresh=0 / rc_lookahead=60 / rc=crf / mbtree=1 / crf=18.0 / qcomp=0.60 / qpmin=0 / qpmax=69 / qpstep=4 / vbv_maxrate=62500 / vbv_bufsize=78125 / crf_max=0.0 / nal_hrd=none / filler=0 / ip_ratio=1.40 / aq=1:1.00\r\nDefault                                  : Yes\r\nForced                                   : No\r\n\r\nAudio\r\nID                                       : 2\r\nFormat                                   : AC-3\r\nFormat/Info                              : Audio Coding 3\r\nMode extension                           : CM (complete main)\r\nFormat settings, Endianness              : Big\r\nCodec ID                                 : A_AC3\r\nDuration                                 : 22mn 3s\r\nBit rate mode                            : Constant\r\nBit rate                                 : 384 Kbps\r\nChannel(s)                               : 6 channels\r\nChannel positions                        : Front: L C R, Side: L R, LFE\r\nSampling rate                            : 48.0 KHz\r\nBit depth                                : 16 bits\r\nCompression mode                         : Lossy\r\nStream size                              : 60.6 MiB (10%)\r\nTitle                                    : AC3 5.1\r\nLanguage                                 : English\r\nDefault                                  : Yes\r\nForced                                   : No\r\n\r\nText\r\nID                                       : 3\r\nFormat                                   : UTF-8\r\nCodec ID                                 : S_TEXT/UTF8\r\nCodec ID/Info                            : UTF-8 Plain Text\r\nTitle                                    : CC\r\nLanguage                                 : English\r\nDefault                                  : Yes\r\nForced                                   : No","torrent":{"xt":"urn:btih:f5f37b10e750049cac081adf74acff30c9de6920","amp;dn":"My.Little.Pony.Friendship.Is.Magic.S05E16.Made.in.Manehattan.108","amp;tr":["udp%3A%2F%2Ftracker.leechers-paradise.org%3A6969","udp%3A%2F%2Fzer0day.ch%3A1337","udp%3A%2F%2Fopen.demonii.com%3A1337","udp%3A%2F%2Ftracker.coppersurfer.tk%3A6969","udp%3A%2F%2Fexodus.desync.com%3A6969"],"infoHash":"f5f37b10e750049cac081adf74acff30c9de6920","infoHashBuffer":{"type":"Buffer","data":[245,243,123,16,231,80,4,156,172,8,26,223,116,172,255,48,201,222,105,32]},"announce":[],"urlList":[]}}